<svg width="121" height="34" viewBox="0 0 121 34" fill="none" xmlns="http://www.w3.org/2000/svg">
<path fill-rule="evenodd" clip-rule="evenodd" d="M0 0V4.67538H8.21138V14.4035L13.8166 11.1674V4.67538H22.028V0H0ZM13.8166 12.303L8.21138 15.5391V17.8103L13.8166 14.5742V12.303ZM8.21138 21.2169V18.9459L13.8166 15.7097V17.9807L8.21138 21.2169ZM13.8166 19.1163L8.21138 22.3525V24.6237L13.8166 21.3876V19.1163ZM8.21138 26.8212V25.7593L13.8166 22.5231V26.8212L11.014 33.8283L8.21138 26.8212ZM25.6557 0V26.8212H43.7809V22.1459H31.3264V15.7418H42.7987V11.0664H31.3264V4.67538H43.7286V0H25.6557ZM48.237 26.8212V0H58.8188C60.8443 0 62.5731 0.362331 64.0049 1.08699C65.4455 1.80292 66.5412 2.82007 67.2921 4.13843C68.0517 5.44806 68.4315 6.98906 68.4315 8.76143C68.4315 10.5425 68.0473 12.0748 67.279 13.3582C66.5107 14.6329 65.3975 15.6108 63.9394 16.2918C63.8595 16.3294 63.7786 16.3659 63.6968 16.4014L69.3875 26.8212H63.1275L58.047 17.3133H53.9077V26.8212H48.237ZM57.758 12.7558H53.9077V4.63609H57.7318C58.8231 4.63609 59.7268 4.79761 60.4427 5.12066C61.1674 5.43497 61.7043 5.8977 62.0536 6.50886C62.4115 7.12002 62.5905 7.87088 62.5905 8.76143C62.5905 9.64324 62.4115 10.381 62.0536 10.9747C61.7043 11.5684 61.1717 12.0137 60.4558 12.3105C59.7399 12.6074 58.8406 12.7558 57.758 12.7558ZM72.4389 0V26.8212H78.1096V17.3133H82.249L87.3294 26.8212H93.5895L87.8988 16.4014C87.9806 16.3659 88.0615 16.3294 88.1414 16.2918C89.5995 15.6108 90.7126 14.6329 91.481 13.3582C92.2493 12.0748 92.6334 10.5425 92.6334 8.76143C92.6334 6.98906 92.2536 5.44806 91.4941 4.13843C90.7432 2.82007 89.6475 1.80292 88.2069 1.08699C86.775 0.362331 85.0463 0 83.0207 0H72.4389ZM78.1096 12.7558H81.9599C83.0426 12.7558 83.9419 12.6074 84.6578 12.3105C85.3737 12.0137 85.9063 11.5684 86.2555 10.9747C86.6135 10.381 86.7925 9.64324 86.7925 8.76143C86.7925 7.87088 86.6135 7.12002 86.2555 6.50886C85.9063 5.8977 85.3693 5.43497 84.6447 5.12066C83.9288 4.79761 83.0251 4.63609 81.9338 4.63609H78.1096V12.7558ZM101.264 26.8212H95.1872L104.446 0H111.754L121 26.8212H114.923L112.938 20.7053H103.254L101.264 26.8212ZM108.205 6.12907L111.5 16.2787H104.694L107.995 6.12907H108.205Z" fill="white"/>
</svg>
