<svg width="47" height="50" viewBox="0 0 47 50" fill="none" xmlns="http://www.w3.org/2000/svg">
<g clip-path="url(#clip0_35_20)">
<path d="M4.33623 6.26865H42.8072C43.7557 6.26865 44.5213 5.44558 44.5213 4.42595C44.5213 3.40632 43.7557 2.58325 42.8072 2.58325H4.33623C3.38774 2.58325 2.62209 3.40632 2.62209 4.42595C2.62209 5.44558 3.38774 6.26865 4.33623 6.26865ZM3.05062 39.7198L4.86761 38.2395C5.16473 38.1351 5.42185 37.9508 5.61612 37.7051C6.13036 37.4778 6.73602 37.5392 7.19313 37.9139L8.89012 39.296C9.76537 40.0045 10.8313 40.3878 11.927 40.3878C13.0227 40.3878 14.0886 40.0045 14.9639 39.296L16.6609 37.9139C17.2323 37.4471 18.0265 37.4471 18.5921 37.9139L20.3006 39.3021C21.1753 40.0141 22.2431 40.3981 23.3403 40.3954C24.4145 40.3954 25.483 40.033 26.38 39.3021L28.077 37.9201C28.3557 37.6958 28.6945 37.5746 29.0427 37.5746C29.3908 37.5746 29.7296 37.6958 30.0083 37.9201L31.7053 39.3021C32.5805 40.0107 33.6465 40.3939 34.7422 40.3939C35.8379 40.3939 36.9038 40.0107 37.7791 39.3021L39.4761 37.9201C40.0474 37.4533 40.8417 37.4594 41.4073 37.9201L43.1043 39.3082C43.5443 39.6645 44.0357 39.9409 44.5556 40.1313C44.9868 40.2849 45.457 40.2482 45.863 40.0294C46.269 39.8106 46.5777 39.4275 46.7212 38.9643C46.864 38.5008 46.8299 37.9953 46.6264 37.5588C46.4228 37.1224 46.0665 36.7906 45.6355 36.6363C45.4698 36.5749 45.3098 36.4889 45.1727 36.3722L44.4985 35.8255C44.3866 31.6156 43.1704 27.5254 40.9902 24.0261V9.97247C40.9902 8.95285 40.2246 8.12977 39.2761 8.12977C38.3276 8.12977 37.5619 8.95285 37.5619 9.97247V19.7633C36.1393 18.3855 34.5474 17.224 32.8309 16.3114V9.97247C32.8309 8.95285 32.0653 8.12977 31.1168 8.12977C30.1683 8.12977 29.4026 8.95285 29.4026 9.97247V14.8741C28.077 14.4564 26.6943 14.18 25.2773 14.0571V9.97247C25.2773 8.95285 24.5116 8.12977 23.5631 8.12977C22.6147 8.12977 21.849 8.95285 21.849 9.97247V14.0571C20.4891 14.1738 19.1692 14.4318 17.9008 14.8188V9.97247C17.9008 8.95285 17.1351 8.12977 16.1866 8.12977C15.2381 8.12977 14.4725 8.95285 14.4725 9.97247V16.2131C12.7609 17.107 11.1695 18.2455 9.74148 19.5975V9.97247C9.74148 8.95285 8.97583 8.12977 8.02734 8.12977C7.07885 8.12977 6.3132 8.95285 6.3132 9.97247V23.7374C4.09778 27.1883 2.82692 31.2379 2.64494 35.4263L0.982231 36.7837C0.22801 37.398 0.0794512 38.5527 0.650831 39.3635C0.785784 39.5575 0.955216 39.7208 1.1493 39.8439C1.34339 39.9669 1.55828 40.0474 1.7815 40.0805C2.00473 40.1137 2.23185 40.0988 2.4497 40.0369C2.66756 39.975 2.87181 39.8672 3.05062 39.7198ZM23.5689 17.6627C32.4195 17.6627 39.7503 24.7509 40.9217 33.9276C39.6932 33.7986 38.4304 34.1425 37.402 34.9779L35.7107 36.3661C35.1393 36.8329 34.3451 36.8329 33.7794 36.3661L32.0824 34.984C31.2083 34.2726 30.1419 33.8876 29.0455 33.8876C27.9491 33.8876 26.8828 34.2726 26.0086 34.984L24.3059 36.3661C23.7403 36.8267 22.9403 36.8267 22.3747 36.3661L20.6777 34.984C19.8024 34.2755 18.7365 33.8922 17.6408 33.8922C16.5451 33.8922 15.4792 34.2755 14.6039 34.984L12.9012 36.3661C12.3298 36.8329 11.5356 36.8267 10.9699 36.3661L9.27295 34.984C8.39394 34.2718 7.32251 33.8879 6.22178 33.8907C7.41025 24.7325 14.7353 17.6627 23.5689 17.6627ZM45.6412 43.6509C45.4755 43.5894 45.3213 43.5034 45.1784 43.3867L43.4814 42.0047C42.6073 41.2933 41.5409 40.9082 40.4446 40.9082C39.3482 40.9082 38.2818 41.2933 37.4077 42.0047L35.7107 43.3867C35.1393 43.8536 34.3451 43.8536 33.7794 43.3867L32.0824 42.0047C31.2083 41.2933 30.1419 40.9082 29.0455 40.9082C27.9491 40.9082 26.8828 41.2933 26.0086 42.0047L24.3117 43.3867C23.746 43.8474 22.9461 43.8474 22.3804 43.3867L20.6834 42.0047C18.895 40.549 16.398 40.5428 14.6096 42.0047L12.9126 43.3867C12.3413 43.8536 11.547 43.8536 10.9814 43.3867L9.28437 42.0047C7.49596 40.549 4.99903 40.5428 3.21061 42.0047L0.993658 43.8106C0.63148 44.1054 0.393094 44.5429 0.330945 45.0267C0.268795 45.5105 0.387972 46.001 0.662258 46.3903C0.936544 46.7797 1.34347 47.0359 1.79352 47.1028C2.24357 47.1696 2.69987 47.0415 3.06205 46.7466L5.279 44.9408C5.84467 44.4801 6.63889 44.4739 7.21027 44.9408L8.90726 46.3228C9.78251 47.0314 10.8485 47.4146 11.9441 47.4146C13.0398 47.4146 14.1058 47.0314 14.981 46.3228L16.678 44.9408C17.2494 44.4801 18.0436 44.4801 18.6093 44.9408L20.3006 46.3228C21.1753 47.0348 22.2431 47.4188 23.3403 47.4161C24.4145 47.4161 25.483 47.0537 26.38 46.3228L28.077 44.9408C28.6484 44.4801 29.4426 44.4739 30.0083 44.9408L31.7053 46.3228C33.4937 47.7846 35.9906 47.7785 37.7791 46.3228L39.4761 44.9408C40.0474 44.4801 40.8417 44.4739 41.4073 44.9408L43.1043 46.3228C43.5443 46.679 44.0357 46.9616 44.5556 47.1458C44.9868 47.2994 45.457 47.2628 45.863 47.044C46.269 46.8252 46.5777 46.4421 46.7212 45.9788C47.024 45.0145 46.5383 43.9703 45.6412 43.6509Z" fill="white"/>
</g>
<defs>
<clipPath id="clip0_35_20">
<rect width="46.5116" height="50" fill="white" transform="translate(0.302246)"/>
</clipPath>
</defs>
</svg>
