<svg width="121" height="34" fill="none" xmlns="http://www.w3.org/2000/svg"><path fill-rule="evenodd" clip-rule="evenodd" d="M0 0v4.675h8.211v9.729l5.606-3.237V4.675h8.211V0H0zm13.817 12.303L8.21 15.539v2.271l5.606-3.236v-2.271zM8.21 21.217v-2.271l5.606-3.236v2.27L8.21 21.218zm5.606-2.1L8.21 22.351v2.272l5.606-3.236v-2.272zM8.21 26.82V25.76l5.606-3.236v4.298l-2.803 7.007-2.803-7.007zM25.656 0v26.821H43.78v-4.675H31.326v-6.404H42.8v-4.676H31.326v-6.39H43.73V0H25.656zm22.581 26.821V0h10.582c2.025 0 3.754.362 5.186 1.087 1.44.716 2.536 1.733 3.287 3.051.76 1.31 1.14 2.851 1.14 4.623 0 1.782-.385 3.314-1.153 4.597-.768 1.275-1.882 2.253-3.34 2.934-.08.037-.16.074-.242.11l5.69 10.42h-6.26l-5.08-9.509h-4.14v9.508h-5.67zm9.521-14.065h-3.85v-8.12h3.824c1.091 0 1.995.162 2.71.485.725.314 1.262.777 1.612 1.388.357.611.536 1.362.536 2.252 0 .882-.179 1.62-.536 2.214-.35.593-.882 1.039-1.598 1.335-.716.297-1.615.446-2.698.446zM72.438 0v26.821h5.672v-9.508h4.139l5.08 9.508h6.26l-5.69-10.42c.082-.035.162-.072.242-.11 1.459-.68 2.572-1.658 3.34-2.933.768-1.283 1.152-2.816 1.152-4.597 0-1.772-.38-3.313-1.139-4.623-.75-1.318-1.847-2.335-3.287-3.051C86.775.362 85.047 0 83.02 0H72.439zm5.672 12.756h3.85c1.083 0 1.982-.149 2.698-.446.716-.296 1.248-.742 1.597-1.335.359-.594.538-1.332.538-2.214 0-.89-.18-1.641-.538-2.252-.349-.611-.886-1.074-1.61-1.388-.716-.323-1.62-.485-2.711-.485H78.11v8.12zm23.154 14.065h-6.077L104.446 0h7.308L121 26.821h-6.077l-1.985-6.116h-9.684l-1.99 6.116zm6.941-20.692l3.295 10.15h-6.806l3.301-10.15h.21z" fill="#fff"/></svg>