<svg width="47" height="50" fill="none" xmlns="http://www.w3.org/2000/svg"><g clip-path="url(#clip0_35_20)"><path d="M4.336 6.269h38.471c.949 0 1.714-.823 1.714-1.843s-.765-1.843-1.714-1.843H4.337c-.95 0-1.715.823-1.715 1.843s.766 1.843 1.714 1.843zm-1.285 33.45l1.817-1.48c.297-.104.554-.288.748-.534a1.51 1.51 0 011.577.209l1.697 1.382a4.822 4.822 0 003.037 1.092 4.822 4.822 0 003.037-1.092l1.697-1.382a1.507 1.507 0 011.931 0l1.709 1.388a4.791 4.791 0 003.04 1.093 4.79 4.79 0 003.039-1.093l1.697-1.382c.279-.224.617-.345.966-.345.348 0 .687.12.965.345l1.697 1.382a4.821 4.821 0 003.037 1.092 4.821 4.821 0 003.037-1.092l1.697-1.382a1.514 1.514 0 011.931 0l1.697 1.388c.44.356.932.633 1.452.823.43.154.901.117 1.307-.102a1.81 1.81 0 00.858-1.065 1.97 1.97 0 00-.095-1.405 1.758 1.758 0 00-.99-.923 1.533 1.533 0 01-.463-.264l-.675-.547c-.111-4.21-1.328-8.3-3.508-11.799V9.972c0-1.02-.765-1.842-1.714-1.842-.948 0-1.714.823-1.714 1.842v9.791a20.926 20.926 0 00-4.731-3.452V9.972c0-1.02-.766-1.842-1.714-1.842-.949 0-1.714.823-1.714 1.842v4.902a19.263 19.263 0 00-4.126-.817V9.972c0-1.02-.765-1.842-1.714-1.842-.948 0-1.714.823-1.714 1.842v4.085c-1.36.117-2.68.375-3.948.762V9.972c0-1.02-.766-1.842-1.714-1.842-.949 0-1.715.823-1.715 1.842v6.241a21.081 21.081 0 00-4.73 3.384V9.973c0-1.02-.766-1.842-1.715-1.842-.948 0-1.714.823-1.714 1.842v13.765c-2.215 3.451-3.486 7.5-3.668 11.69L.982 36.783c-.754.614-.903 1.769-.331 2.58.135.194.304.357.498.48s.41.203.633.236c.223.034.45.019.668-.043.218-.062.422-.17.6-.317zm20.518-22.056c8.85 0 16.181 7.088 17.353 16.265a4.765 4.765 0 00-3.52 1.05l-1.691 1.388a1.507 1.507 0 01-1.932 0l-1.697-1.382a4.806 4.806 0 00-3.037-1.096 4.806 4.806 0 00-3.036 1.096l-1.703 1.382c-.566.46-1.366.46-1.931 0l-1.697-1.382a4.822 4.822 0 00-3.037-1.092 4.822 4.822 0 00-3.037 1.092L12.9 36.366a1.515 1.515 0 01-1.931 0l-1.697-1.382a4.822 4.822 0 00-3.051-1.093c1.188-9.158 8.513-16.228 17.347-16.228zM45.64 43.65a1.609 1.609 0 01-.463-.264l-1.697-1.382a4.806 4.806 0 00-3.036-1.097 4.806 4.806 0 00-3.037 1.097l-1.697 1.382a1.507 1.507 0 01-1.932 0l-1.697-1.382a4.806 4.806 0 00-3.037-1.097 4.806 4.806 0 00-3.036 1.097l-1.697 1.382c-.566.46-1.366.46-1.932 0l-1.697-1.382c-1.788-1.456-4.285-1.462-6.073 0l-1.697 1.382a1.506 1.506 0 01-1.932 0l-1.697-1.382c-1.788-1.456-4.285-1.462-6.073 0L.994 43.81c-.363.294-.6.732-.663 1.216-.062.483.057.974.331 1.363.275.39.681.646 1.132.713.45.067.906-.062 1.268-.356l2.217-1.806a1.514 1.514 0 011.931 0l1.697 1.382a4.821 4.821 0 003.037 1.092 4.821 4.821 0 003.037-1.092l1.697-1.382a1.522 1.522 0 011.931 0l1.692 1.382a4.791 4.791 0 003.04 1.093 4.79 4.79 0 003.039-1.093l1.697-1.382a1.514 1.514 0 011.931 0l1.697 1.382c1.789 1.462 4.286 1.456 6.074 0l1.697-1.382a1.514 1.514 0 011.931 0l1.697 1.382c.44.356.932.639 1.452.823.43.153.901.117 1.307-.102a1.81 1.81 0 00.858-1.065c.303-.965-.183-2.009-1.08-2.328z" fill="#fff"/></g><defs><clipPath id="clip0_35_20"><path fill="#fff" transform="translate(.302)" d="M0 0h46.512v50H0z"/></clipPath></defs></svg>