<svg width="48" height="50" fill="none" xmlns="http://www.w3.org/2000/svg"><path d="M30.73 8.742a5.27 5.27 0 01-3.22.62l-1.767 1.899 1.127 1.04c6.537.695 11.141 3.696 11.141 6.415 0 1.94-2.35 4.026-6.064 5.313-.973.937-2.247 1.529-3.65 1.556l-2.74 2.863c-.006.317-.038.62-.09.923 4.515-.2 8.465-1.308 11.347-3.056.064.11.134.213.218.31.646.75.98 1.507.98 2.243 0 3.098-5.975 6.56-13.972 6.56-7.998 0-13.965-3.476-13.965-6.573 0-.703.3-1.425.89-2.141a2.05 2.05 0 00.269-.44c.909.557 1.94 1.039 3.054 1.465a6.26 6.26 0 011.71-3.778c-3.637-1.287-5.923-3.346-5.923-5.26 0-1.686 1.786-3.482 4.7-4.77a6.362 6.362 0 01-.52-2.532c0-.64.097-1.253.263-1.831-5.052 1.851-8.285 5.176-8.285 9.134v20.601c0 6.099 7.658 10.69 17.813 10.69 10.155 0 17.813-4.598 17.813-10.69V18.702c0-4.66-4.482-8.44-11.128-9.96zM24.047 45.87c-7.997 0-13.971-3.462-13.971-6.56 0-.702.3-1.425.89-2.14a2.18 2.18 0 00.371-.682c3.182 1.914 7.639 3.056 12.71 3.056 5.052 0 9.483-1.135 12.665-3.028.084.192.186.378.327.544.647.75.98 1.507.98 2.243 0 3.105-5.974 6.567-13.972 6.567zm4.137-29.694c-.308 0-.596.062-.871.151l-4.425-4.082c.064-.268.109-.543.109-.84 0-.33-.058-.64-.14-.936l3.911-4.205c.43.24.903.385 1.416.385a2.994 2.994 0 002.184-.976c.58-.623.906-1.467.908-2.348a3.462 3.462 0 00-.907-2.35A2.994 2.994 0 0028.183 0a2.994 2.994 0 00-2.186.976 3.462 3.462 0 00-.907 2.349c0 .062.013.117.019.172l-4.386 4.715a2.921 2.921 0 00-.813-.131c-1.703 0-3.093 1.494-3.093 3.325 0 1.83 1.39 3.324 3.093 3.324.314 0 .614-.069.903-.158l4.399 4.061a3.49 3.49 0 00-.122.867c0 .33.058.647.147.95l-4.495 4.701a2.82 2.82 0 00-.832-.137c-1.703 0-3.093 1.493-3.093 3.324 0 1.831 1.39 3.325 3.093 3.325a2.994 2.994 0 002.185-.976c.58-.623.906-1.467.908-2.349 0-.323-.058-.626-.135-.915l4.514-4.722c.256.076.525.13.8.13a2.99 2.99 0 002.19-.974c.58-.624.906-1.47.906-2.353a3.46 3.46 0 00-.906-2.354 2.99 2.99 0 00-2.19-.974zm.006-13.96c.273 0 .535.117.729.325.193.208.302.49.302.784 0 .294-.109.575-.302.783a.996.996 0 01-.73.325.996.996 0 01-.728-.325 1.151 1.151 0 01-.302-.783c0-.294.109-.576.302-.784a.996.996 0 01.729-.325zm-8.273 10.298a.996.996 0 01-.729-.325 1.152 1.152 0 01-.302-.783c0-.294.109-.576.302-.784a.996.996 0 01.73-.325c.273 0 .535.117.728.325.194.208.302.49.302.784 0 .293-.108.575-.302.783a.996.996 0 01-.729.325zm0 16.919a.996.996 0 01-.729-.325 1.152 1.152 0 01-.302-.783c0-.294.109-.576.302-.784a.996.996 0 01.73-.325c.273 0 .535.117.728.325.194.208.302.49.302.784 0 .294-.108.575-.302.783a.995.995 0 01-.729.325zm8.273-8.825a.996.996 0 01-.729-.324 1.151 1.151 0 01-.302-.784c0-.294.109-.576.302-.783a.995.995 0 01.729-.325c.273 0 .535.117.729.325.193.207.302.49.302.783 0 .294-.109.576-.302.784a.996.996 0 01-.73.325z" fill="#fff"/></svg>