<svg width="50" height="50" fill="none" xmlns="http://www.w3.org/2000/svg"><g clip-path="url(#clip0_26_690)"><path d="M47.593 40.006a13.64 13.64 0 01-10.617-5.17c-.228-.3-.444-.6-.66-.9a8.704 8.704 0 00-1.044-1.296c-1.451-1.344-4.186-1.14-6.838-.936h-.24c-3.886.288-9.597.276-13.628-3.155A20.457 20.457 0 0112.96 27a12.153 12.153 0 00-1.584-1.475 10.663 10.663 0 00-2.495-1.2 19.87 19.87 0 01-3.24-1.404 8.661 8.661 0 00-3.083-1.2 2.402 2.402 0 01.924-4.714c1.59.286 3.115.859 4.499 1.692.797.476 1.636.878 2.507 1.2a14.945 14.945 0 013.6 1.763c.819.614 1.578 1.305 2.267 2.063.38.42.78.82 1.2 1.2 2.099 1.751 5.338 2.4 10.197 2.051h.24c3.323-.24 7.45-.552 10.449 2.196a12.674 12.674 0 011.703 2.04c.18.24.348.491.54.719a8.914 8.914 0 006.85 3.335 2.4 2.4 0 010 4.799l.06-.06zm-43.98-7.762a2.303 2.303 0 01-1.548-.6l-.132-.12-.12-.108a2.4 2.4 0 011.8-4.45c.589.24 1.126.59 1.584 1.031a2.4 2.4 0 01.216 3.431 2.4 2.4 0 01-1.8.816zm31.755 10.713a2.4 2.4 0 01-1.44-.48c-.947-.708-1.655-1.283-1.943-1.56a2.399 2.399 0 01-.48-3.407 2.4 2.4 0 013.3-.467l.42.36c.12.108.695.587 1.571 1.2a2.399 2.399 0 01-1.44 4.318l.012.036zm-13.364-2.76a2.4 2.4 0 11-.096-4.798l1.116-.072 1.403-.096a2.405 2.405 0 11.324 4.799l-1.355.096-1.272.072h-.12zM13.21 38.77a2.398 2.398 0 01-1.08-.264 12.326 12.326 0 01-2.399-1.547l-.3-.264a2.41 2.41 0 013.204-3.6l.168.145c.441.37.924.688 1.44.947a2.4 2.4 0 01-1.033 4.583zm31.192 8.782a7.2 7.2 0 01-1.775-.252 2.398 2.398 0 01-1.392-3.806 2.4 2.4 0 012.591-.837c.192.056.389.088.588.096a2.4 2.4 0 010 4.799h-.012zM3.41 41.782a2.4 2.4 0 01-1.476-.504l-.192-.144a5.744 5.744 0 00-.527-.312 2.413 2.413 0 012.399-4.187c.326.178.643.375.948.588l.372.276a2.4 2.4 0 01-1.476 4.294l-.048-.012zm22.374 6.106a2.4 2.4 0 01-.996-.216 5.88 5.88 0 00-1.847-.444 2.41 2.41 0 11.48-4.799 10.56 10.56 0 013.347.852 2.4 2.4 0 01-.996 4.583l.012.024zm-11.997-.528h-.192a20.068 20.068 0 01-3.035-.444 2.4 2.4 0 011.104-4.667c.754.174 1.52.29 2.291.348a2.4 2.4 0 11-.192 4.799l.024-.036zm22.218 2.591a2.4 2.4 0 01-1.02-.228h-.407a2.416 2.416 0 01.552-4.798c.822.03 1.62.279 2.315.72a2.4 2.4 0 01-1.44 4.306zm-7.846-28.144l2.088-10.57 9.357-9.357a5.998 5.998 0 118.482 8.482l-9.357 9.357-10.57 2.088zm6.515-8.206l-.42 2.123 2.111-.42 8.326-8.337a1.2 1.2 0 10-1.703-1.692l-8.314 8.326zm-10.666.048l-3.335-1.524-2.95 6.599 3.274 1.475.792-1.751h.072a19.11 19.11 0 004.367.707l.708-3.599a16.656 16.656 0 01-3.6-.467l.672-1.44zM15.61 7.555l-1.116 1.62h-.132a28.098 28.098 0 00-1.392-.565l-.443-.168c-.48-.198-.945-.43-1.392-.696a89.732 89.732 0 01-2.723-1.823l-.108-.072.995-1.512-3.047-1.967L2.317 8.37l3.012 1.992.983-1.5h.072c.96.636 1.956 1.296 3.011 1.908.604.354 1.234.663 1.884.923l.456.168.696.276-.888 1.284 2.963 2.04 4.079-5.855-2.975-2.051zm30.832 13.568l-.696 1.56a13.198 13.198 0 01-2.4-1.716 8.1 8.1 0 01-1.091-1.296l-2.316 2.316-.384.072a10.02 10.02 0 001.38 1.583 17.051 17.051 0 003.36 2.4l-.769 1.703 3.275 1.38 2.952-6.563-3.311-1.44z" fill="#0061D9"/></g><defs><clipPath id="clip0_26_690"><path fill="#fff" d="M0 0h50v50H0z"/></clipPath></defs></svg>