<svg width="48" height="50" fill="none" xmlns="http://www.w3.org/2000/svg"><g clip-path="url(#clip0_35_30)"><path d="M31.506 19.44V6.216L29.351 0H12.819l-2.05 6.229v16.849h3.476v5.619h.012v7.194c1.871-1.526 4.31-1.875 6.443-1.053h3.308v2.267l.163.131 1.65-1.345a6.766 6.766 0 011.971-1.115v-6.08h3.552v5.868a6.63 6.63 0 012.74 1.327l1.044.847v-8.041h3.65v6.322a6.463 6.463 0 013.784-.53v-5.792h4.45V19.44H31.506zM15.276 3.737H26.94l.887 2.554H14.43l.846-2.554zm-1.037 15.61V9.96h13.79v9.387h-4.42v-5.114H18.44v5.114h-4.2zm9.764 13.884h-5.969v-1.507h5.969v1.507zm0-3.114h-5.969v-1.42h5.969v1.42zm19.52-5.158H17.721v-1.788h25.802v1.788zm2.788 20.954l-1.721-1.401c-1.814-1.483-4.346-1.477-6.16 0l-1.72 1.401a1.544 1.544 0 01-1.96 0l-1.72-1.401c-1.814-1.483-4.346-1.477-6.16 0l-1.72 1.401a1.544 1.544 0 01-1.959 0l-1.72-1.401c-1.814-1.483-4.346-1.477-6.16 0l-1.72 1.401a1.544 1.544 0 01-1.96 0l-1.72-1.401a4.89 4.89 0 00-3.08-1.108 4.89 4.89 0 00-3.08 1.108l-2.26 1.83a1.9 1.9 0 00-.671 1.234c-.063.49.057.988.336 1.383.278.395.69.655 1.147.722.456.068.919-.062 1.286-.36l2.248-1.832a1.544 1.544 0 011.959 0l1.72 1.402c1.814 1.482 4.347 1.476 6.16 0l1.721-1.402a1.536 1.536 0 011.959 0l1.726 1.402c1.814 1.482 4.346 1.476 6.16 0l1.72-1.402a1.536 1.536 0 011.959 0l1.72 1.402a4.859 4.859 0 003.083 1.108c1.09 0 2.173-.367 3.083-1.108l1.72-1.402a1.543 1.543 0 011.96 0l1.72 1.402c.765.622 1.854.46 2.434-.362.585-.822.434-1.993-.33-2.616zm0-7.126l-1.721-1.401c-1.814-1.483-4.346-1.477-6.16 0l-1.72 1.401a1.544 1.544 0 01-1.96 0l-1.72-1.401c-1.814-1.483-4.346-1.477-6.16 0l-1.72 1.401a1.544 1.544 0 01-1.959 0l-1.72-1.401c-1.814-1.483-4.346-1.477-6.16 0l-1.72 1.401a1.543 1.543 0 01-1.96 0l-1.72-1.401a4.827 4.827 0 00-2.208-1.022V7.381c0-.413-.153-.809-.424-1.1a1.4 1.4 0 00-1.024-.457 1.4 1.4 0 00-1.025.456 1.618 1.618 0 00-.424 1.101v3.88h-.684a1.4 1.4 0 00-1.024.457 1.618 1.618 0 00-.424 1.101c0 .413.152.809.424 1.101a1.4 1.4 0 001.024.456H4.8v3.819h-.678c-.384 0-.752.164-1.024.456a1.618 1.618 0 00-.424 1.1c0 .414.152.81.424 1.102a1.4 1.4 0 001.024.456H4.8v3.818h-.678a1.4 1.4 0 00-1.024.457 1.618 1.618 0 00-.424 1.1c0 .413.152.81.424 1.101.272.293.64.457 1.024.457H4.8v3.818h-.678a1.4 1.4 0 00-1.024.456 1.619 1.619 0 00-.424 1.101c0 .413.152.81.424 1.101a1.4 1.4 0 001.024.456H4.8v1.57c-.37.168-.73.374-1.06.642l-2.248 1.831a1.832 1.832 0 00-.45.545 2.003 2.003 0 00-.182 1.416c.057.237.158.46.296.655.137.196.31.36.506.484a1.62 1.62 0 001.317.196c.221-.062.428-.17.61-.319l2.248-1.83a1.544 1.544 0 011.959 0l1.72 1.4c1.814 1.483 4.347 1.477 6.16 0l1.721-1.4a1.536 1.536 0 011.959 0l1.726 1.4c1.814 1.483 4.346 1.477 6.16 0l1.72-1.4a1.536 1.536 0 011.959 0l1.72 1.4a4.859 4.859 0 003.083 1.11c1.09 0 2.173-.368 3.083-1.11l1.72-1.4a1.544 1.544 0 011.96 0l1.72 1.4c.765.623 1.854.462 2.434-.36.585-.823.434-1.994-.33-2.617z" fill="#fff"/></g><defs><clipPath id="clip0_35_30"><path fill="#fff" transform="translate(.651)" d="M0 0h46.512v50H0z"/></clipPath></defs></svg>