<svg width="48" height="50" fill="none" xmlns="http://www.w3.org/2000/svg"><g clip-path="url(#clip0_35_37)"><path d="M17.634 14.773h6.343V9.09h-6.343v5.682zM8.12 0v10.227H.72V50h18.944a7.821 7.821 0 01-.614-3.034c.001-.507.044-1.013.127-1.511H12.35V4.545h26.427v4.546h4.228V0H8.12zm0 45.455H4.95V14.773H8.12v30.682zm9.514-21.591h6.343v-5.682h-6.343v5.682zm21.142 21.59h-5.772c.087.499.133 1.005.137 1.512A7.817 7.817 0 0132.518 50h10.486v-9.09h-4.228v4.545zm-21.142-12.5h3.108a16.096 16.096 0 013.235-5.42v-.261h-6.343v5.682zm10.57 5.682h-4.227c0-3.014 1.113-5.904 3.096-8.035 1.982-2.131 4.67-3.328 7.474-3.328h8.457v4.545h-8.457c-1.682 0-3.295.718-4.484 1.997-1.19 1.279-1.858 3.013-1.858 4.821zm2.115-25h12.685v4.546H30.319v-4.546zm4.228 6.819h4.229v9.09h-4.229v-9.09zm8.457 2.272h4.228v13.637h-4.228V22.727zM26.091 50a2.824 2.824 0 01-1.97-.917 3.254 3.254 0 01-.853-2.117c0-3.034 2.823-4.546 2.823-6.057 0 1.511 2.822 3.034 2.822 6.057a3.254 3.254 0 01-.853 2.117 2.824 2.824 0 01-1.97.917z" fill="#fff"/></g><defs><clipPath id="clip0_35_37"><path fill="#fff" transform="translate(.72)" d="M0 0h46.512v50H0z"/></clipPath></defs></svg>