<svg width="27" height="27" fill="none" xmlns="http://www.w3.org/2000/svg"><path d="M3.675.175A6.688 6.688 0 002.1 1.349C.032 3.429-.425 6.621.364 9.956c.79 3.334 2.814 6.89 5.876 9.969 3.062 3.08 6.598 5.114 9.913 5.908 3.316.795 6.49.34 8.559-1.74.461-.465.855-1.001 1.168-1.59.394-.74.082-1.59-.6-1.98L18.2 16.48a.77.77 0 00-.929.125l-1.653 1.662a1.543 1.543 0 01-2.216 0l-5.513-5.544a1.558 1.558 0 010-2.224l1.653-1.667a.783.783 0 00.128-.935L5.65.777c-.388-.685-1.237-1-1.975-.602zm.655 1.432l3.7 6.543-1.236 1.244a3.155 3.155 0 000 4.43l5.513 5.548a3.113 3.113 0 004.405 0l1.236-1.243 6.507 3.716c-.235.424-.507.81-.838 1.142-1.587 1.596-4.129 2.043-7.102 1.331-2.973-.712-6.297-2.598-9.177-5.494s-4.755-6.237-5.463-9.228C1.167 6.606 1.612 4.045 3.2 2.45c.33-.331.71-.606 1.131-.842z" fill="#fff"/></svg>