<svg width="1600" height="466" fill="none" xmlns="http://www.w3.org/2000/svg"><path d="M1493.73 1.93c-38.45 5.828-80.03 21.906-129.28 50.042-52.22 29.745-79.47 41.904-117.07 51.852-41.87 11.154-87.84 11.656-130.56 1.306-35.34-8.44-66.84-21.906-112.96-48.133-11.353-6.532-27.673-15.174-36.187-19.294C887.21-1.386 809.869-9.324 729.831 13.486c-31.22 8.843-60.595 21.806-99.762 44.114-43.425 24.72-79.754 40.194-112.819 48.133-38.457 9.144-79.186 9.044-117.359-.503-33.917-8.54-65.421-22.408-117.502-52.052-53.5-30.347-96.641-45.822-143.329-51.047C120.47.021 86.127.825 68.673 3.74 30.215 9.969-13.92 26.147-53.796 48.556-60.466 52.375-66 55.791-66 56.294c0 1.105 39.735 43.008 40.87 43.008.284 0 6.812-3.316 14.333-7.436 71.948-38.99 125.165-46.023 186.612-24.921 22.705 7.838 41.296 16.68 73.935 35.271 33.491 19.092 61.021 32.156 88.977 42.305 31.646 11.455 55.913 17.283 87.701 21.202 15.042 1.91 54.351 1.608 70.955-.401 54.635-6.633 108.277-26.127 172.421-62.503 29.659-16.882 49.1-26.127 69.535-33.16 28.808-9.949 49.953-13.567 78.335-13.567 47.54 0 87.274 12.36 145.174 45.32 60.172 34.165 106.152 52.153 156.812 61.196 23.27 4.221 39.73 5.326 68.54 4.824 40.59-.804 70.25-6.431 113.1-21.404 29.24-10.149 58.33-23.715 90.12-41.802 32.21-18.39 49.1-27.132 64.57-33.663 41.43-17.184 73.65-20.299 111.54-10.451 20.43 5.225 47.25 16.882 74.07 32.156 6.82 3.818 12.92 7.034 13.48 7.034.57 0 10.22-9.747 21.58-21.705l20.57-21.605-3.55-2.01c-51.65-29.14-85.85-43.008-125.59-50.846-18.3-3.618-54.92-4.22-74.36-1.206z" fill="#fff" fill-opacity=".7"/><path d="M1498.7 150.148c-31.08 4.019-68.12 16.279-105.16 34.969-5.39 2.814-20.71 11.154-34.05 18.691-51.66 29.141-82.45 42.204-119.35 50.846-22.42 5.125-36.75 6.833-60.17 6.833-32.36 0-57.33-4.22-90.82-15.575-28.53-9.748-47.68-18.59-83.73-39.09-35.193-19.896-52.222-27.935-81.03-38.084-72.09-25.423-140.917-25.524-213.433-.201-24.834 8.642-47.681 19.293-75.212 34.869-42.005 23.815-60.17 32.457-87.984 42.104-33.775 11.757-57.758 15.977-89.404 15.877-30.084-.101-53.216-4.221-85.146-15.375-26.679-9.245-48.675-19.896-90.112-43.511-48.392-27.734-91.958-43.812-136.234-50.545-16.745-2.612-55.203-2.612-72.942-.1-30.369 4.321-65.562 15.274-97.35 30.347-23.699 11.154-41.863 21.404-41.722 23.413 0 1.005 9.083 11.154 20.01 22.61l20.009 20.901 4.825-2.914c2.554-1.608 10.785-6.029 18.164-9.948 67.692-35.07 119.347-40.798 179.659-19.897 20.577 7.135 39.734 16.38 69.394 33.161 28.098 15.977 49.668 26.931 69.535 35.371 85.146 36.176 164.758 40.898 248.485 14.571 33.774-10.652 66.556-25.725 111.825-51.65 27.531-15.777 56.622-28.438 80.321-34.869 36.329-9.948 75.922-10.652 112.819-2.01 28.665 6.733 55.486 18.188 95.079 40.697 45.694 25.926 90.254 44.817 128.424 54.364 100.48 25.222 194.99 7.536 305.82-57.177 39.74-23.213 67.27-35.271 94.37-41.501 17.46-4.02 40.16-4.623 58.89-1.608 23.7 3.919 54.64 16.178 87.85 34.869l14.9 8.34 20.72-21.604c24.26-25.323 24.4-21.002-1.14-34.769-56.48-30.447-103.03-44.214-149.15-43.913-8.65 0-20.86.704-26.96 1.508z" fill="#fff" fill-opacity=".7"/><path d="M1502.11 298.768c-42.44 4.924-89.55 22.81-144.04 54.765-51.66 30.347-98.49 48.234-142.62 54.866-5.82.804-18.59 1.809-28.38 2.11-55.78 1.809-111.26-14.671-178.81-52.956-39.31-22.308-61.59-32.859-88.837-41.803-94.938-31.151-184.909-19.796-282.401 35.974-35.052 19.997-48.817 26.931-73.367 36.98-50.946 20.7-98.912 26.729-146.026 18.188-39.025-6.934-74.644-21.203-124.597-49.842-58.609-33.562-98.201-48.836-145.316-55.971-20.293-3.014-55.203-3.014-75.07 0-32.64 5.025-64.853 15.274-97.492 30.749C-44.572 341.274-66 353.031-66 354.438c0 .603 38.458 41.702 40.444 43.108.284.201 6.528-3.014 13.908-7.134 36.612-20.298 68.542-31.754 100.046-35.974 5.393-.704 15.894-1.005 27.673-.603 22.705.603 36.47 3.115 60.595 11.355 21.003 7.134 38.742 15.575 69.11 32.758 27.673 15.777 44.134 24.318 61.164 31.855 43.992 19.494 84.152 30.548 124.738 34.366 18.591 1.708 56.623.603 74.929-2.11 52.365-7.838 103.027-26.931 163.906-61.699 45.269-25.926 77.767-38.486 115.231-44.415 14.333-2.311 48.959-2.311 63.576 0 16.887 2.613 27.814 5.426 46.12 11.656 20.719 7.034 39.026 15.676 65.279 30.548 47.251 26.83 76.771 40.195 113.671 51.45 76.2 23.413 148.44 21.805 225.49-5.125 34.2-11.858 56.34-22.308 99.62-46.827 50.67-28.739 79.9-40.396 110.84-44.214 12.34-1.508 33.77-.603 47.11 2.11 22.28 4.522 52.51 16.882 83.02 33.964 7.8 4.422 14.61 7.838 15.18 7.637.43-.2 9.94-9.948 21.01-21.604 19.58-20.6 20.15-21.303 17.59-23.012-6.38-4.321-32.5-18.087-48.11-25.423-19.15-8.943-48.53-19.494-64.56-23.212-25.26-5.828-56.2-7.838-79.47-5.125z" fill="#fff" fill-opacity=".7"/></svg>