<svg width="29" height="18" viewBox="0 0 29 18" fill="none" xmlns="http://www.w3.org/2000/svg">
<path fill-rule="evenodd" clip-rule="evenodd" d="M9.51475 9.08789L1.34131 2.19735V15.9784L9.51475 9.08789ZM18.0609 9.96767L25.7812 16.476H2.83912L10.5594 9.96767L13.8792 12.7667C14.1286 12.9767 14.4916 12.9767 14.741 12.7667L18.0613 9.96767H18.0609ZM14.31 11.3696L2.42574 1.34954H26.1948L14.31 11.3696ZM27.2781 2.19741L19.1052 9.08794L27.2781 15.979V2.19741ZM1.7883 0.000204675L26.8312 0C27.8178 0 28.6201 0.72617 28.6201 1.61761V16.2077C28.6201 17.0995 27.8179 17.8253 26.8312 17.8253H1.78882C0.802225 17.8253 0.000127792 17.0995 0.000127792 16.2077V1.61761C0.000127792 0.72617 0.802174 0 1.78882 0L1.7883 0.000204675Z" fill="white"/>
</svg>
