<svg width="48" height="50" viewBox="0 0 48 50" fill="none" xmlns="http://www.w3.org/2000/svg">
<path d="M30.7309 8.74174C29.7385 9.28789 28.6172 9.50358 27.5102 9.36123L25.7429 11.261L26.8699 12.3004C33.4074 12.9956 38.0112 15.9967 38.0112 18.7156C38.0112 20.6567 35.6612 22.7423 31.9475 24.0295C30.9742 24.9656 29.7 25.5575 28.2978 25.5851L25.5573 28.4485C25.5509 28.7651 25.5188 29.068 25.4676 29.3709C29.9818 29.1713 33.9324 28.0631 36.8138 26.3147C36.8778 26.4248 36.9483 26.5281 37.0315 26.6245C37.6782 27.3747 38.0112 28.1319 38.0112 28.8684C38.0112 31.9659 32.0371 35.4281 24.0397 35.4281C16.0424 35.4281 10.0747 31.9521 10.0747 28.8546C10.0747 28.1525 10.3757 27.4298 10.9648 26.7139C11.0736 26.5763 11.1632 26.4317 11.2337 26.2734C12.1429 26.8309 13.1738 27.3128 14.2879 27.7395C14.4224 26.2596 15.0563 24.9381 15.9975 23.9606C12.3606 22.6735 10.0747 20.6154 10.0747 18.7018C10.0747 17.0154 11.8612 15.2189 14.7746 13.9317C14.4315 13.1383 14.2544 12.2736 14.2559 11.3987C14.2559 10.7585 14.352 10.1459 14.5184 9.56773C9.46644 11.4193 6.23291 14.7439 6.23291 18.7018V39.3034C6.23291 45.402 13.8909 49.9931 24.0461 49.9931C34.2014 49.9931 41.8594 45.3951 41.8594 39.3034V18.7018C41.8594 14.0418 37.3773 10.2629 30.7309 8.74174ZM24.0461 45.87C16.0488 45.87 10.0747 42.4078 10.0747 39.3103C10.0747 38.6082 10.3757 37.8855 10.9648 37.1696C11.1312 36.9631 11.2529 36.736 11.3361 36.4882C14.5184 38.4017 18.9749 39.5443 24.0461 39.5443C29.0981 39.5443 33.529 38.4086 36.7113 36.5157C36.7946 36.7084 36.897 36.8943 37.0379 37.0595C37.6846 37.8097 38.0176 38.5669 38.0176 39.3034C38.0176 42.4078 32.0435 45.87 24.0461 45.87ZM28.1825 16.1757C27.8752 16.1757 27.587 16.2376 27.3117 16.3271L22.8872 12.2453C22.9512 11.9769 22.996 11.7015 22.996 11.4056C22.996 11.0752 22.9384 10.7654 22.8552 10.4694L26.7674 6.26377C27.1964 6.50468 27.6703 6.64923 28.1825 6.64923C29.0022 6.64741 29.7879 6.29656 30.3675 5.67346C30.9471 5.05037 31.2735 4.2058 31.2752 3.32461C31.2735 2.44343 30.9471 1.59886 30.3675 0.975766C29.7879 0.352674 29.0022 0.00181875 28.1825 0C27.3628 0.00181877 26.5772 0.352674 25.9975 0.975766C25.4179 1.59886 25.0915 2.44343 25.0898 3.32461C25.0898 3.38656 25.1026 3.44163 25.109 3.4967L20.723 8.21173C20.4604 8.13601 20.1915 8.08095 19.9098 8.08095C18.2066 8.08095 16.8171 9.57461 16.8171 11.4056C16.8171 13.2365 18.2066 14.7302 19.9098 14.7302C20.2235 14.7302 20.5245 14.6613 20.8126 14.5719L25.2115 18.633C25.1411 18.9083 25.0898 19.1974 25.0898 19.5003C25.0898 19.8307 25.1475 20.1473 25.2371 20.4502L20.7422 25.1514C20.4733 25.0688 20.1979 25.0138 19.9098 25.0138C18.2066 25.0138 16.8171 26.5074 16.8171 28.3384C16.8171 30.1693 18.2066 31.663 19.9098 31.663C20.7295 31.6612 21.5151 31.3103 22.0948 30.6872C22.6744 30.0641 23.0008 29.2196 23.0025 28.3384C23.0025 28.0149 22.9448 27.712 22.868 27.4229L27.3821 22.701C27.6382 22.7767 27.9072 22.8318 28.1825 22.8318C29.0036 22.8318 29.791 22.4811 30.3716 21.857C30.9522 21.2329 31.2784 20.3864 31.2784 19.5037C31.2784 18.6211 30.9522 17.7746 30.3716 17.1504C29.791 16.5263 29.0036 16.1757 28.1825 16.1757ZM28.1889 2.21641C28.4623 2.21641 28.7245 2.33317 28.9179 2.541C29.1112 2.74882 29.2198 3.0307 29.2198 3.32461C29.2198 3.61853 29.1112 3.90041 28.9179 4.10823C28.7245 4.31606 28.4623 4.43282 28.1889 4.43282C27.9155 4.43282 27.6533 4.31606 27.46 4.10823C27.2666 3.90041 27.158 3.61853 27.158 3.32461C27.158 3.0307 27.2666 2.74882 27.46 2.541C27.6533 2.33317 27.9155 2.21641 28.1889 2.21641ZM19.9162 12.5138C19.6428 12.5138 19.3806 12.397 19.1872 12.1892C18.9939 11.9814 18.8853 11.6995 18.8853 11.4056C18.8853 11.1116 18.9939 10.8298 19.1872 10.6219C19.3806 10.4141 19.6428 10.2974 19.9162 10.2974C20.1896 10.2974 20.4518 10.4141 20.6451 10.6219C20.8385 10.8298 20.9471 11.1116 20.9471 11.4056C20.9471 11.6995 20.8385 11.9814 20.6451 12.1892C20.4518 12.397 20.1896 12.5138 19.9162 12.5138ZM19.9162 29.4328C19.6428 29.4328 19.3806 29.3161 19.1872 29.1082C18.9939 28.9004 18.8853 28.6185 18.8853 28.3246C18.8853 28.0307 18.9939 27.7488 19.1872 27.541C19.3806 27.3332 19.6428 27.2164 19.9162 27.2164C20.1896 27.2164 20.4518 27.3332 20.6451 27.541C20.8385 27.7488 20.9471 28.0307 20.9471 28.3246C20.9471 28.6185 20.8385 28.9004 20.6451 29.1082C20.4518 29.3161 20.1896 29.4328 19.9162 29.4328ZM28.1889 20.6085C27.9155 20.6085 27.6533 20.4917 27.46 20.2839C27.2666 20.0761 27.158 19.7942 27.158 19.5003C27.158 19.2064 27.2666 18.9245 27.46 18.7167C27.6533 18.5088 27.9155 18.3921 28.1889 18.3921C28.4623 18.3921 28.7245 18.5088 28.9179 18.7167C29.1112 18.9245 29.2198 19.2064 29.2198 19.5003C29.2198 19.7942 29.1112 20.0761 28.9179 20.2839C28.7245 20.4917 28.4623 20.6085 28.1889 20.6085Z" fill="white"/>
</svg>
