<svg width="50" height="50" viewBox="0 0 50 50" fill="none" xmlns="http://www.w3.org/2000/svg">
<g clip-path="url(#clip0_26_690)">
<path d="M47.5932 40.0059C45.5492 39.9946 43.5338 39.5241 41.6961 38.6291C39.8584 37.7341 38.2453 36.4376 36.9761 34.8353C36.7481 34.5353 36.5322 34.2354 36.3163 33.9355C36.0106 33.4713 35.661 33.0374 35.2725 32.6398C33.8209 31.2962 31.0857 31.5001 28.4344 31.7041H28.1944C24.3075 31.992 18.597 31.98 14.5661 28.5489C14.0025 28.0627 13.4658 27.5461 12.9585 27.0014C12.4756 26.4634 11.9456 25.9695 11.3749 25.5257C10.5988 25.0191 9.75996 24.6158 8.87959 24.3261C7.76037 23.9552 6.67638 23.4855 5.64046 22.9224C4.69936 22.3282 3.65254 21.9208 2.55728 21.7228C1.93207 21.6003 1.38112 21.2344 1.02565 20.7057C0.670175 20.177 0.53929 19.5287 0.661787 18.9035C0.784284 18.2783 1.15013 17.7274 1.67884 17.3719C2.20755 17.0164 2.85582 16.8855 3.48103 17.008C5.07103 17.2936 6.59559 17.8668 7.97983 18.6996C8.77683 19.1759 9.61618 19.5775 10.4872 19.8993C11.7606 20.3229 12.9711 20.916 14.0862 21.6628C14.906 22.2768 15.6653 22.9677 16.3536 23.7262C16.7333 24.1458 17.1337 24.5462 17.5533 24.9259C19.6527 26.6774 22.8918 27.3253 27.7505 26.9774H27.9905C31.3136 26.7374 35.4405 26.4255 38.4397 29.1728C39.0774 29.791 39.6484 30.4746 40.1432 31.2122C40.3232 31.4522 40.4911 31.7041 40.6831 31.932C41.5075 32.9596 42.5494 33.7917 43.7339 34.3684C44.9184 34.945 46.2159 35.252 47.5333 35.2671C48.1695 35.2672 48.7797 35.5201 49.2296 35.97C49.6795 36.42 49.9323 37.0302 49.9323 37.6665C49.9323 38.3028 49.6795 38.913 49.2296 39.363C48.7797 39.8129 48.1695 40.0658 47.5333 40.0659L47.5932 40.0059ZM3.613 32.2439C3.04052 32.2433 2.48881 32.0294 2.06541 31.6441L1.93345 31.5241L1.81348 31.4162C1.52123 31.2943 1.256 31.1157 1.03308 30.8909C0.810157 30.666 0.633953 30.3992 0.514624 30.1059C0.395296 29.8126 0.335203 29.4986 0.337812 29.1819C0.34042 28.8653 0.405678 28.5523 0.529822 28.261C0.774077 27.6863 1.23278 27.2294 1.80848 26.9875C2.38418 26.7456 3.03153 26.7376 3.613 26.9654C4.20175 27.2053 4.73925 27.5555 5.19658 27.9971C5.43973 28.2058 5.63862 28.4611 5.78151 28.7479C5.92439 29.0347 6.00837 29.3473 6.0285 29.6671C6.04863 29.9869 6.00449 30.3075 5.8987 30.6099C5.7929 30.9124 5.62759 31.1906 5.41252 31.4282C5.18767 31.6841 4.9109 31.8892 4.60063 32.0299C4.29035 32.1705 3.95367 32.2435 3.613 32.2439ZM35.3685 42.9571C34.8494 42.9571 34.3442 42.7887 33.9289 42.4772C32.9811 41.7694 32.2733 41.1936 31.9854 40.9176C31.7265 40.7283 31.5081 40.4889 31.3433 40.2137C31.1785 39.9386 31.0705 39.6331 31.0257 39.3155C30.981 38.9978 31.0004 38.6744 31.0828 38.3644C31.1652 38.0544 31.309 37.764 31.5055 37.5105C31.8878 37.0204 32.4453 36.6978 33.0606 36.6105C33.676 36.5232 34.3012 36.6782 34.8047 37.0427L35.2245 37.4026C35.3445 37.5105 35.9204 37.9904 36.7961 38.6022C37.199 38.9044 37.4966 39.3256 37.6467 39.8063C37.7969 40.287 37.792 40.8027 37.6327 41.2805C37.4735 41.7582 37.168 42.1737 36.7594 42.4682C36.3509 42.7626 35.8601 42.9211 35.3565 42.9211L35.3685 42.9571ZM22.0041 40.1978C21.689 40.2041 21.3757 40.1483 21.0822 40.0335C20.7887 39.9188 20.5207 39.7473 20.2934 39.529C19.8345 39.088 19.5695 38.4828 19.5567 37.8465C19.544 37.2101 19.7846 36.5948 20.2256 36.1358C20.6665 35.6768 21.2718 35.4118 21.9081 35.3991L23.0238 35.3271L24.4274 35.2312C25.0638 35.1882 25.6911 35.3998 26.1715 35.8194C26.6518 36.239 26.9458 36.8322 26.9888 37.4686C27.0317 38.1049 26.8201 38.7323 26.4005 39.2126C25.9809 39.6929 25.3877 39.9869 24.7513 40.0299L23.3957 40.1258L22.1241 40.1978H22.0041ZM13.2104 38.7702C12.8348 38.768 12.465 38.6776 12.1307 38.5063C11.2737 38.0851 10.4685 37.5658 9.73136 36.9587L9.43144 36.6948C8.95418 36.27 8.6652 35.673 8.62808 35.0352C8.59096 34.3974 8.80873 33.7709 9.2335 33.2937C9.65826 32.8164 10.2552 32.5274 10.893 32.4903C11.5309 32.4532 12.1573 32.671 12.6346 33.0957L12.8025 33.2397C13.2445 33.6098 13.7275 33.9278 14.2422 34.1874C14.7438 34.4158 15.1516 34.81 15.3968 35.3036C15.6421 35.7973 15.7098 36.3604 15.5888 36.8981C15.4677 37.4359 15.1652 37.9156 14.732 38.2565C14.2989 38.5974 13.7616 38.7788 13.2104 38.7702ZM44.4021 47.5519C43.8021 47.5422 43.2056 47.4576 42.6266 47.2999C42.3112 47.2311 42.013 47.0994 41.7498 46.9126C41.4865 46.7258 41.2637 46.4879 41.0946 46.213C40.9254 45.9381 40.8135 45.6319 40.7655 45.3127C40.7175 44.9935 40.7343 44.668 40.8151 44.3555C40.8958 44.043 41.0388 43.75 41.2354 43.494C41.4321 43.2381 41.6783 43.0244 41.9594 42.8659C42.2406 42.7073 42.5508 42.6071 42.8716 42.5712C43.1923 42.5354 43.517 42.5646 43.8263 42.6572C44.0176 42.7127 44.215 42.745 44.4141 42.7531C45.0504 42.7532 45.6606 43.0061 46.1105 43.456C46.5604 43.906 46.8131 44.5162 46.8131 45.1525C46.8131 45.7888 46.5604 46.399 46.1105 46.849C45.6606 47.2989 45.0504 47.5518 44.4141 47.5519H44.4021ZM3.40905 41.7814C2.87481 41.7824 2.3555 41.6051 1.93345 41.2775L1.7415 41.1336C1.57122 41.0203 1.39502 40.9162 1.21364 40.8217C0.658425 40.5035 0.252344 39.9778 0.0847316 39.3602C-0.0828811 38.7426 0.00170377 38.0838 0.319879 37.5285C0.638053 36.9733 1.16375 36.5672 1.78133 36.3996C2.39891 36.232 3.05778 36.3166 3.613 36.6348C3.93944 36.8132 4.25583 37.0095 4.56075 37.2226L4.93265 37.4985C5.32812 37.8055 5.61769 38.2284 5.7608 38.7081C5.90392 39.1878 5.89341 39.7002 5.73075 40.1737C5.56809 40.6471 5.26143 41.0578 4.85371 41.3482C4.44599 41.6387 3.95763 41.7943 3.45704 41.7934L3.40905 41.7814ZM25.7831 47.8878C25.4395 47.8879 25.1 47.8143 24.7873 47.6718C24.1996 47.4247 23.5757 47.2747 22.9398 47.2279C22.6247 47.1964 22.3189 47.1032 22.0399 46.9535C21.7609 46.8038 21.514 46.6006 21.3135 46.3555C20.9085 45.8606 20.7168 45.225 20.7804 44.5886C20.844 43.9523 21.1579 43.3673 21.6528 42.9623C22.1478 42.5574 22.7834 42.3656 23.4197 42.4292C24.5746 42.5275 25.7054 42.8153 26.7668 43.281C27.2655 43.5082 27.6714 43.8993 27.917 44.3892C28.1626 44.8791 28.233 45.4383 28.1167 45.9739C28.0003 46.5094 27.7041 46.9889 27.2774 47.3328C26.8507 47.6766 26.3191 47.864 25.7711 47.8638L25.7831 47.8878ZM13.7863 47.3599H13.5943C12.5728 47.2896 11.5581 47.1412 10.5591 46.916C9.96034 46.751 9.44887 46.3602 9.13229 45.8258C8.8157 45.2914 8.71869 44.6551 8.86164 44.0507C9.0046 43.4462 9.37638 42.9208 9.8988 42.5848C10.4212 42.2489 11.0536 42.1286 11.6628 42.2493C12.4168 42.4228 13.1828 42.5391 13.9542 42.5972C14.5906 42.6226 15.1908 42.8998 15.6227 43.3678C16.0547 43.8358 16.2831 44.4562 16.2576 45.0925C16.2322 45.7289 15.955 46.329 15.487 46.761C15.019 47.193 14.3986 47.4214 13.7623 47.3959L13.7863 47.3599ZM36.0043 49.9512C35.6518 49.9511 35.3036 49.8732 34.9846 49.7233H34.5767C33.9404 49.6501 33.3592 49.3271 32.9609 48.8254C32.5627 48.3237 32.3801 47.6843 32.4533 47.048C32.5265 46.4116 32.8494 45.8304 33.3512 45.4322C33.8529 45.034 34.4922 44.8514 35.1286 44.9246C35.9505 44.9552 36.7495 45.2036 37.444 45.6444C37.8419 45.948 38.1349 46.3685 38.282 46.8469C38.4291 47.3254 38.4228 47.8378 38.2641 48.3126C38.1055 48.7873 37.8023 49.2005 37.3971 49.4943C36.9918 49.7882 36.5049 49.9479 36.0043 49.9512ZM28.1584 21.8067L30.2459 11.2376L39.6034 1.88007C40.1567 1.30716 40.8186 0.850188 41.5504 0.535818C42.2823 0.221448 43.0694 0.0559755 43.8658 0.0490546C44.6623 0.0421337 45.4522 0.193903 46.1893 0.495508C46.9265 0.797113 47.5963 1.24251 48.1595 1.80572C48.7227 2.36892 49.1681 3.03866 49.4697 3.77584C49.7713 4.51302 49.923 5.30288 49.9161 6.09935C49.9092 6.89581 49.7437 7.68292 49.4294 8.41475C49.115 9.14657 48.658 9.80847 48.0851 10.3618L38.7276 19.7193L28.1584 21.8067ZM34.6727 13.6009L34.2528 15.7244L36.3642 15.3045L44.69 6.96671C44.8011 6.85485 44.889 6.72221 44.9488 6.57637C45.0087 6.43052 45.0392 6.27432 45.0386 6.11669C45.038 5.95906 45.0064 5.80308 44.9456 5.65766C44.8848 5.51224 44.7959 5.38023 44.684 5.26916C44.5722 5.15809 44.4395 5.07014 44.2937 5.01033C44.1478 4.95053 43.9916 4.92003 43.834 4.92059C43.6764 4.92114 43.5204 4.95274 43.375 5.01358C43.2296 5.07442 43.0975 5.1633 42.9865 5.27516L34.6727 13.6009ZM24.0075 13.6489L20.6724 12.1253L17.7212 18.7236L20.9964 20.1992L21.7881 18.4476H21.8601C23.2834 18.8518 24.7488 19.0893 26.227 19.1554L26.9348 15.5564C25.7216 15.532 24.5148 15.3751 23.3357 15.0885L24.0075 13.6489ZM15.6098 7.55455L14.4941 9.17412H14.3621C13.9062 8.97017 13.4384 8.79022 12.9705 8.61027L12.5266 8.44231C12.0468 8.24366 11.5818 8.01113 11.135 7.7465C10.2232 7.15866 9.32347 6.55882 8.41172 5.92299L8.30374 5.85101L9.29948 4.33941L6.25229 2.37193L2.31734 8.37033L5.32854 10.3618L6.31228 8.8622H6.38426C7.344 9.49803 8.33974 10.1579 9.39545 10.7697C9.99945 11.124 10.629 11.4328 11.2789 11.6934L11.7348 11.8614L12.4306 12.1373L11.5429 13.421L14.5061 15.4604L18.585 9.606L15.6098 7.55455ZM46.4416 21.1229L45.7457 22.6825C44.8844 22.2021 44.0795 21.6267 43.3464 20.967C42.9382 20.5744 42.5723 20.1402 42.2547 19.6713L39.9393 21.9867L39.5554 22.0587C39.9585 22.6334 40.4209 23.1642 40.935 23.6423C41.9534 24.5752 43.0814 25.3808 44.2941 26.0416L43.5263 27.7452L46.8015 29.1248L49.7527 22.5625L46.4416 21.1229Z" fill="#0061D9"/>
</g>
<defs>
<clipPath id="clip0_26_690">
<rect width="50" height="50" fill="white"/>
</clipPath>
</defs>
</svg>
