<svg width="48" height="50" viewBox="0 0 48 50" fill="none" xmlns="http://www.w3.org/2000/svg">
<g clip-path="url(#clip0_35_37)">
<path d="M17.634 14.7727H23.9765V9.09091H17.634V14.7727ZM8.12028 0V10.2273H0.720703V50H19.6636C19.2607 49.0471 19.0516 48.0127 19.0505 46.9659C19.0511 46.4591 19.0936 45.9533 19.1774 45.4545H12.3486V4.54545H38.7757V9.09091H43.004V0H8.12028ZM8.12028 45.4545H4.94903V14.7727H8.12028V45.4545ZM17.634 23.8636H23.9765V18.1818H17.634V23.8636ZM38.7757 45.4545H33.004C33.0913 45.953 33.1373 46.4587 33.1414 46.9659C33.137 48.0135 32.9243 49.048 32.5177 50H43.004V40.9091H38.7757V45.4545ZM17.634 32.9545H20.7418C21.4651 30.9296 22.5658 29.085 23.9765 27.5341V27.2727H17.634V32.9545ZM28.2048 38.6364H23.9765C23.9765 35.6225 25.0902 32.7322 27.0726 30.6011C29.0551 28.47 31.7438 27.2727 34.5473 27.2727H43.004V31.8182H34.5473C32.8652 31.8182 31.252 32.5365 30.0625 33.8152C28.8731 35.0938 28.2048 36.8281 28.2048 38.6364ZM30.319 13.6364H43.004V18.1818H30.319V13.6364ZM34.5473 20.4545H38.7757V29.5455H34.5473V20.4545ZM43.004 22.7273H47.2323V36.3636H43.004V22.7273ZM26.0907 50C25.3497 49.9744 24.6455 49.6466 24.1213 49.083C23.5971 48.5194 23.2921 47.7625 23.2683 46.9659C23.2683 43.9318 26.0907 42.4205 26.0907 40.9091C26.0907 42.4205 28.9131 43.9432 28.9131 46.9659C28.8893 47.7625 28.5843 48.5194 28.0601 49.083C27.5358 49.6466 26.8317 49.9744 26.0907 50Z" fill="white"/>
</g>
<defs>
<clipPath id="clip0_35_37">
<rect width="46.5116" height="50" fill="white" transform="translate(0.720703)"/>
</clipPath>
</defs>
</svg>
