<svg width="48" height="50" viewBox="0 0 48 50" fill="none" xmlns="http://www.w3.org/2000/svg">
<g clip-path="url(#clip0_35_30)">
<path d="M31.5061 19.4403V6.21642L29.3506 0H12.8195L10.7683 6.22888V23.078H14.2449V28.6965H14.2565V35.8908C16.128 34.3647 18.5674 34.0159 20.6997 34.8381H24.0083V37.1054L24.1705 37.2362L25.8219 35.8908C26.4303 35.3987 27.0967 35.025 27.792 34.7758V28.6965H31.3439V34.5641C32.3173 34.7821 33.256 35.2181 34.0846 35.8908L35.1276 36.7379V28.6965H38.778V35.0188C39.9716 34.4582 41.2869 34.2838 42.5617 34.4893V28.6965H47.0117V19.4403H31.5061ZM15.2763 3.73733H26.9402L27.8267 6.29117H14.4303L15.2763 3.73733ZM14.2391 19.3469V9.95998H28.0295V19.3469H23.6085V14.233H18.44V19.3469H14.2391ZM24.0025 33.2311H18.0344V31.7237H24.0025V33.2311ZM24.0025 30.1166H18.0344V28.6965H24.0025V30.1166ZM43.5235 24.9591H17.7215V23.1714H43.5235V24.9591ZM46.3106 45.9131L44.5897 44.5116C42.7761 43.0291 40.2439 43.0353 38.4303 44.5116L36.7094 45.9131C36.13 46.3802 35.3246 46.3802 34.7509 45.9131L33.03 44.5116C31.2164 43.0291 28.6843 43.0353 26.8707 44.5116L25.1498 45.9131C24.5703 46.3802 23.7649 46.3802 23.1913 45.9131L21.4704 44.5116C19.6568 43.0291 17.1247 43.0353 15.311 44.5116L13.5901 45.9131C13.0107 46.3802 12.2053 46.3802 11.6317 45.9131L9.91074 44.5116C9.02316 43.793 7.9422 43.4044 6.83107 43.4044C5.71994 43.4044 4.63897 43.793 3.75139 44.5116L1.49161 46.3429C1.12433 46.6419 0.882586 47.0855 0.81956 47.5761C0.756535 48.0667 0.877391 48.5642 1.15554 48.959C1.43369 49.3538 1.84635 49.6137 2.30274 49.6815C2.75914 49.7492 3.22187 49.6193 3.58915 49.3203L5.83734 47.489C6.41677 47.0218 7.22218 47.0218 7.79582 47.489L9.51673 48.8905C11.3303 50.373 13.8625 50.3667 15.6761 48.8905L17.397 47.489C17.9706 47.0218 18.7818 47.0156 19.3555 47.489L21.0822 48.8905C22.8958 50.373 25.4279 50.3667 27.2415 48.8905L28.9624 47.489C29.5419 47.0218 30.3473 47.0156 30.9209 47.489L32.6418 48.8905C33.5289 49.6125 34.6117 50.002 35.7244 49.9992C36.8137 49.9992 37.8972 49.6317 38.807 48.8905L40.5279 47.489C41.1073 47.0218 41.9127 47.0218 42.4863 47.489L44.2072 48.8905C44.9721 49.5134 46.0614 49.3514 46.6409 48.5292C47.2261 47.707 47.0754 46.536 46.3106 45.9131ZM46.3106 38.7872L44.5897 37.3857C42.7761 35.9033 40.2439 35.9095 38.4303 37.3857L36.7094 38.7872C36.13 39.2544 35.3246 39.2544 34.7509 38.7872L33.03 37.3857C31.2164 35.9033 28.6843 35.9095 26.8707 37.3857L25.1498 38.7872C24.5703 39.2544 23.7649 39.2544 23.1913 38.7872L21.4704 37.3857C19.6568 35.9033 17.1247 35.9095 15.311 37.3857L13.5901 38.7872C13.0107 39.2544 12.2053 39.2544 11.6317 38.7872L9.91074 37.3857C9.26312 36.8572 8.50533 36.5066 7.70311 36.3642V7.38122C7.70304 6.96827 7.55039 6.57226 7.27874 6.28028C7.00709 5.9883 6.63867 5.82428 6.25453 5.82428C5.87039 5.82428 5.50198 5.9883 5.23033 6.28028C4.95867 6.57226 4.80602 6.96827 4.80596 7.38122V11.2618H4.12223C3.73809 11.2619 3.3697 11.426 3.0981 11.718C2.82649 12.01 2.67391 12.4061 2.67391 12.819C2.67391 13.232 2.82649 13.628 3.0981 13.9201C3.3697 14.2121 3.73809 14.3762 4.12223 14.3763H4.80016V18.1946H4.12223C3.73809 18.1946 3.3697 18.3587 3.0981 18.6508C2.82649 18.9428 2.67391 19.3388 2.67391 19.7518C2.67391 20.1647 2.82649 20.5608 3.0981 20.8528C3.3697 21.1448 3.73809 21.3089 4.12223 21.309H4.80016V25.1273H4.12223C3.73809 25.1274 3.3697 25.2915 3.0981 25.5835C2.82649 25.8755 2.67391 26.2716 2.67391 26.6845C2.67391 27.0975 2.82649 27.4935 3.0981 27.7855C3.3697 28.0776 3.73809 28.2417 4.12223 28.2417H4.80016V32.06H4.12223C3.73804 32.06 3.36959 32.2241 3.09793 32.5161C2.82627 32.8082 2.67365 33.2043 2.67365 33.6173C2.67365 34.0303 2.82627 34.4264 3.09793 34.7184C3.36959 35.0104 3.73804 35.1745 4.12223 35.1745H4.80016V36.7442C4.42933 36.9123 4.07008 37.1179 3.7398 37.3857L1.49161 39.217C1.30975 39.3651 1.1568 39.5502 1.04149 39.7618C0.926179 39.9734 0.850767 40.2073 0.81956 40.4503C0.788353 40.6932 0.801962 40.9404 0.85961 41.1776C0.917258 41.4149 1.01782 41.6377 1.15554 41.8332C1.29327 42.0287 1.46547 42.1931 1.6623 42.317C1.85914 42.441 2.07676 42.5221 2.30274 42.5556C2.52873 42.5892 2.75864 42.5745 2.97936 42.5126C3.20009 42.4506 3.40729 42.3425 3.58915 42.1944L5.83734 40.3631C6.41677 39.896 7.22218 39.896 7.79582 40.3631L9.51673 41.7646C11.3303 43.2471 13.8625 43.2409 15.6761 41.7646L17.397 40.3631C17.9706 39.896 18.7818 39.8898 19.3555 40.3631L21.0822 41.7646C22.8958 43.2471 25.4279 43.2409 27.2415 41.7646L28.9624 40.3631C29.5419 39.896 30.3473 39.8898 30.9209 40.3631L32.6418 41.7646C33.5289 42.4867 34.6117 42.8761 35.7244 42.8734C36.8137 42.8734 37.8972 42.5059 38.807 41.7646L40.5279 40.3631C41.1073 39.896 41.9127 39.896 42.4863 40.3631L44.2072 41.7646C44.9721 42.3875 46.0614 42.2256 46.6409 41.4034C47.2261 40.5812 47.0754 39.4101 46.3106 38.7872Z" fill="white"/>
</g>
<defs>
<clipPath id="clip0_35_30">
<rect width="46.5116" height="50" fill="white" transform="translate(0.651367)"/>
</clipPath>
</defs>
</svg>
