<svg width="27" height="27" viewBox="0 0 27 27" fill="none" xmlns="http://www.w3.org/2000/svg">
<path d="M3.67532 0.174625C3.0906 0.489448 2.56146 0.884815 2.10008 1.34899C0.0315475 3.42913 -0.425466 6.62105 0.36446 9.95559C1.15434 13.2902 3.1777 16.8457 6.23954 19.925C9.30159 23.0044 12.8379 25.0388 16.1533 25.833C19.4692 26.6276 22.6436 26.1726 24.7119 24.0924C25.1733 23.6285 25.5667 23.0916 25.8795 22.5038C26.2741 21.7626 25.962 20.9133 25.2796 20.5237L18.2006 16.4805C18.0534 16.3963 17.8829 16.3628 17.715 16.3854C17.5473 16.4079 17.3912 16.4849 17.2711 16.6049L15.6179 18.2671C14.9955 18.893 14.0241 18.893 13.4017 18.2671L7.8885 12.723C7.26612 12.0969 7.26612 11.1248 7.8885 10.4989L9.54164 8.83189C9.6616 8.71146 9.73912 8.55494 9.76232 8.38607C9.78532 8.21739 9.753 8.04553 9.66973 7.89699L5.64924 0.777735C5.26183 0.0916879 4.41251 -0.222375 3.67532 0.174625ZM4.32998 1.6068L8.03004 8.1503L6.79365 9.39362C5.58285 10.6114 5.58285 12.6057 6.79365 13.8235L12.3068 19.3722C13.5176 20.59 15.5012 20.59 16.712 19.3722L17.9483 18.1288L24.4553 21.8451C24.2202 22.2692 23.9478 22.6548 23.6173 22.9872C22.0305 24.583 19.4881 25.0304 16.5149 24.318C13.5416 23.6056 10.218 21.7203 7.33807 18.8244C4.45844 15.9283 2.58339 12.5867 1.87513 9.59615C1.16672 6.60584 1.61183 4.04489 3.19856 2.44934C3.52808 2.11797 3.90986 1.84307 4.32998 1.6068Z" fill="white"/>
</svg>
