<svg width="1600" height="466" viewBox="0 0 1600 466" fill="none" xmlns="http://www.w3.org/2000/svg">
<path d="M1493.73 1.93016C1455.28 7.75838 1413.7 23.8363 1364.45 51.9725C1312.23 81.7166 1284.98 93.8755 1247.38 103.824C1205.51 114.978 1159.54 115.48 1116.82 105.13C1081.48 96.6891 1049.98 83.2239 1003.86 56.9969C992.507 50.4652 976.187 41.8234 967.673 37.7034C887.21 -1.38591 809.869 -9.32436 729.831 13.4861C698.611 22.3289 669.236 35.2917 630.069 57.5998C586.644 82.3195 550.315 97.7945 517.25 105.733C478.793 114.877 438.064 114.777 399.891 105.23C365.974 96.6891 334.47 82.822 282.389 53.1784C228.889 22.8314 185.748 7.35643 139.06 2.13113C120.47 0.0209045 86.1275 0.824799 68.6726 3.73892C30.215 9.96909 -13.919 26.1474 -53.7957 48.556C-60.4655 52.3745 -66 55.791 -66 56.2935C-66 57.3988 -26.2652 99.3018 -25.1299 99.3018C-24.8461 99.3018 -18.3182 95.9857 -10.797 91.8657C61.1514 52.8769 114.368 45.8428 175.815 66.945C198.52 74.783 217.111 83.6258 249.75 102.216C283.241 121.308 310.771 134.372 338.727 144.521C370.373 155.976 394.64 161.804 426.428 165.723C441.47 167.633 480.779 167.331 497.383 165.322C552.018 158.689 605.66 139.195 669.804 102.819C699.463 85.937 718.904 76.6923 739.339 69.6582C768.147 59.71 789.292 56.0925 817.674 56.0925C865.214 56.0925 904.948 68.4523 962.848 101.412C1023.02 135.577 1069 153.565 1119.66 162.608C1142.93 166.829 1159.39 167.934 1188.2 167.432C1228.79 166.628 1258.45 161.001 1301.3 146.028C1330.54 135.879 1359.63 122.313 1391.42 104.226C1423.63 85.8365 1440.52 77.0942 1455.99 70.5626C1497.42 53.3793 1529.64 50.2643 1567.53 60.112C1587.96 65.3373 1614.78 76.9937 1641.6 92.2677C1648.42 96.0862 1654.52 99.3018 1655.08 99.3018C1655.65 99.3018 1665.3 89.5546 1676.66 77.5966L1697.23 55.992L1693.68 53.9823C1642.03 24.8411 1607.83 10.974 1568.09 3.136C1549.79 -0.481522 1513.17 -1.08444 1493.73 1.93016Z" fill="white" fill-opacity="0.7"/>
<path d="M1498.7 150.148C1467.62 154.167 1430.58 166.427 1393.54 185.117C1388.15 187.931 1372.83 196.271 1359.49 203.808C1307.83 232.949 1277.04 246.012 1240.14 254.654C1217.72 259.779 1203.39 261.487 1179.97 261.487C1147.61 261.487 1122.64 257.267 1089.15 245.912C1060.62 236.164 1041.47 227.322 1005.42 206.822C970.227 186.926 953.198 178.887 924.39 168.738C852.3 143.315 783.473 143.214 710.957 168.537C686.123 177.179 663.276 187.83 635.745 203.406C593.74 227.221 575.575 235.863 547.761 245.51C513.986 257.267 490.003 261.487 458.357 261.387C428.273 261.286 405.141 257.166 373.211 246.012C346.532 236.767 324.536 226.116 283.099 202.501C234.707 174.767 191.141 158.689 146.865 151.956C130.12 149.344 91.662 149.344 73.9232 151.856C43.5545 156.177 8.3608 167.13 -23.427 182.203C-47.126 193.357 -65.2905 203.607 -65.1486 205.616C-65.1486 206.621 -56.0663 216.77 -45.1393 228.226L-25.13 249.127L-20.305 246.213C-17.7506 244.605 -9.51986 240.184 -2.14054 236.265C65.5505 201.195 117.206 195.467 177.518 216.368C198.095 223.503 217.252 232.748 246.912 249.529C275.01 265.506 296.58 276.46 316.447 284.9C401.593 321.076 481.205 325.798 564.932 299.471C598.706 288.819 631.488 273.746 676.757 247.821C704.288 232.044 733.379 219.383 757.078 212.952C793.407 203.004 833 202.3 869.897 210.942C898.562 217.675 925.383 229.13 964.976 251.639C1010.67 277.565 1055.23 296.456 1093.4 306.003C1193.88 331.225 1288.39 313.539 1399.22 248.826C1438.96 225.613 1466.49 213.555 1493.59 207.325C1511.05 203.305 1533.75 202.702 1552.48 205.717C1576.18 209.636 1607.12 221.895 1640.33 240.586L1655.23 248.926L1675.95 227.322C1700.21 201.999 1700.35 206.32 1674.81 192.553C1618.33 162.106 1571.78 148.339 1525.66 148.64C1517.01 148.64 1504.8 149.344 1498.7 150.148Z" fill="white" fill-opacity="0.7"/>
<path d="M1502.11 298.768C1459.67 303.692 1412.56 321.578 1358.07 353.533C1306.41 383.88 1259.58 401.767 1215.45 408.399C1209.63 409.203 1196.86 410.208 1187.07 410.509C1131.29 412.318 1075.81 395.838 1008.26 357.553C968.95 335.245 946.67 324.694 919.423 315.75C824.485 284.599 734.514 295.954 637.022 351.724C601.97 371.721 588.205 378.655 563.655 388.704C512.709 409.404 464.743 415.433 417.629 406.892C378.604 399.958 342.985 385.689 293.032 357.05C234.423 323.488 194.831 308.214 147.716 301.079C127.423 298.065 92.5135 298.065 72.6461 301.079C40.0068 306.104 7.79321 316.353 -24.8461 331.828C-44.5716 341.274 -66 353.031 -66 354.438C-66 355.041 -27.5424 396.14 -25.5556 397.546C-25.2718 397.747 -19.0278 394.532 -11.6485 390.412C24.9643 370.114 56.8941 358.658 88.3981 354.438C93.7907 353.734 104.292 353.433 116.071 353.835C138.776 354.438 152.541 356.95 176.666 365.19C197.669 372.324 215.408 380.765 245.776 397.948C273.449 413.725 289.91 422.266 306.94 429.803C350.932 449.297 391.092 460.351 431.678 464.169C450.269 465.877 488.301 464.772 506.607 462.059C558.972 454.221 609.634 435.128 670.513 400.36C715.782 374.434 748.28 361.874 785.744 355.945C800.077 353.634 834.703 353.634 849.32 355.945C866.207 358.558 877.134 361.371 895.44 367.601C916.159 374.635 934.466 383.277 960.719 398.149C1007.97 424.979 1037.49 438.344 1074.39 449.599C1150.59 473.012 1222.83 471.404 1299.88 444.474C1334.08 432.616 1356.22 422.166 1399.5 397.647C1450.17 368.908 1479.4 357.251 1510.34 353.433C1522.68 351.925 1544.11 352.83 1557.45 355.543C1579.73 360.065 1609.96 372.425 1640.47 389.507C1648.27 393.929 1655.08 397.345 1655.65 397.144C1656.08 396.944 1665.59 387.196 1676.66 375.54C1696.24 354.94 1696.81 354.237 1694.25 352.528C1687.87 348.207 1661.75 334.441 1646.14 327.105C1626.99 318.162 1597.61 307.611 1581.58 303.893C1556.32 298.065 1525.38 296.055 1502.11 298.768Z" fill="white" fill-opacity="0.7"/>
</svg>
